<svg xmlns="http://www.w3.org/2000/svg" id="w11k_Logo" data-name="w11k Logo" viewBox="0 0 145.63 36.14"><defs><style>.cls-1{fill:#0000c8}</style></defs><title>w11K_CorporateDesign_Logo_C100M95Y0K3</title><polygon points="80.08 11.34 80.08 36.14 90.71 36.14 90.71 0 80.08 11.34" class="cls-1"/><polygon points="58.82 11.34 58.82 36.14 69.45 36.14 69.45 0 58.82 11.34" class="cls-1"/><polygon points="111.97 20.55 111.97 0 101.34 0 101.34 31.89 111.97 20.55" class="cls-1"/><polygon points="49.42 27.64 41.46 36.14 24.09 0 36.14 0 49.42 27.64" class="cls-1"/><polygon points="12.05 0 25.32 27.64 17.36 36.14 0 0 12.05 0" class="cls-1"/><polygon points="145.63 0 133.01 0 116.07 18.07 133.01 36.14 145.63 36.14 128.69 18.07 145.63 0" class="cls-1"/></svg>